Coordinates
version=1
nRows=16
nColumns=33
inDegrees=yes

Units are S.I. units (second, meters, Newtons, ...)
Angles are in degrees.

endheader
time	ground_thorax_rot_x	ground_thorax_rot_y	ground_thorax_rot_z	ground_thorax_tx	ground_thorax_ty	ground_thorax_tz	clav_prot_r	clav_elev_r	scapula_abduction_r	scapula_elevation_r	scapula_upward_rot_r	scapula_winging_r	shoulder_elv_r	plane_of_elev_r	axial_rot_r	elbow_flexion_r	pro_sup_r	wrist_flex_r	wrist_dev_r	clav_prot_l	clav_elev_l	scapula_abduction_l	scapula_elevation_l	scapula_upward_rot_l	scapula_winging_l	shoulder_elv_l	plane_of_elev_l	axial_rot_l	elbow_flexion_l	pro_sup_l	wrist_flex_l	wrist_dev_l
      3.84000000	     37.78468873	     12.69316823	     15.19872040	   -220.79863130	    843.65513874	      6.59293069	     14.63899264	     37.66910700	     37.85187892	     45.00000000	    -45.00000000	   1350.69354490	  -2987.87725313	    149.19936794	   -109.83972916	    745.33473031	    162.80278802	     12.45005085	      4.75784175	     10.74508959	    -45.00000000	    -37.92163682	     45.00000000	    -45.00000000	  -1698.57377341	   -641.63769250	     19.15191815	    -49.70751346	   1822.07586386	    142.31290079	     -3.30606122	    -12.77651935
      3.85000000	     37.82541928	     12.72476961	     15.11394677	   -221.39809519	    843.20450276	      6.35284755	     14.82282708	     37.68780405	     37.84728340	     45.00000000	    -45.00000000	   1350.76006280	  -2987.90299872	    149.31448449	   -110.10192630	    745.44362651	    162.60438211	     12.39483836	      4.98402513	     10.36954035	    -45.00000000	    -37.83101326	     45.00000000	    -45.00000000	  -1698.50514962	   -641.60021931	     19.01763103	    -50.81081577	   1822.21251010	    142.62132164	     -3.45769408	    -13.03704603
      3.86000000	     37.78979992	     12.87878508	     15.15679131	   -221.64044894	    842.64558966	      6.16453510	     14.78210767	     37.61354870	     37.62856549	     45.00000000	    -45.00000000	   1350.84426797	  -2987.87472616	    149.20192660	   -110.12722613	    745.51269124	    162.58194065	     12.39014962	      4.88899552	     10.45343683	    -45.00000000	    -37.70096916	     45.00000000	    -45.00000000	  -1698.52801049	   -641.66031404	     18.91735887	    -51.08647095	   1822.14267520	    143.11419499	     -3.33174033	    -12.86970789
      3.87000000	     37.74370376	     13.05062558	     15.25696102	   -221.52524815	    841.98266391	      6.03187884	     14.81330282	     37.61327494	     37.59306674	     45.00000000	    -45.00000000	   1350.88988299	  -2987.95358730	    149.25414601	   -110.32379962	    745.55437106	    162.74537353	     12.35622052	      4.98459358	     10.51356883	    -45.00000000	    -37.70123848	     45.00000000	    -45.00000000	  -1698.48279357	   -641.70063912	     18.83359844	    -51.50059297	   1822.19774185	    143.64878938	     -3.44133563	    -12.90019702
      3.88000000	     37.67164509	     13.30299061	     15.41948528	   -221.06565536	    841.21946406	      5.94772311	     14.70576379	     37.54115149	     37.35560783	     45.00000000	    -45.00000000	   1351.05102394	  -2987.89601772	    149.22068837	   -110.49365701	    745.60847479	    163.04096746	     12.33842329	      4.97447667	     10.59595184	    -45.00000000	    -37.80915498	     45.00000000	    -45.00000000	  -1698.51338709	   -641.72915759	     18.75874779	    -51.81777329	   1822.29486407	    144.28061592	     -3.38997451	    -12.78433299
      3.89000000	     37.63331812	     13.61557013	     15.58824506	   -220.28575386	    840.36953753	      5.90191975	     14.46976547	     37.46300176	     37.09213016	     45.00000000	    -45.00000000	   1351.20569481	  -2987.81040127	    149.23636859	   -110.81382528	    745.67616834	    163.46655998	     12.30277200	      5.03882540	     10.78985391	    -45.00000000	    -37.97518836	     45.00000000	    -45.00000000	  -1698.49395614	   -641.81922031	     18.71207764	    -52.16832249	   1822.45643835	    145.03361254	     -3.41655045	    -12.71357644
      3.90000000	     37.70598393	     13.52072486	     15.67500196	   -219.21940032	    839.44254765	      5.88303044	     14.49698664	     37.51819371	     37.50332313	     45.00000000	    -45.00000000	   1351.10097583	  -2988.08426551	    149.20935819	   -111.09462269	    745.52010697	    164.04168779	     12.32519745	      5.01797844	     10.83413561	    -45.00000000	    -37.61484261	     45.00000000	    -45.00000000	  -1698.61589107	   -641.91516565	     18.79973832	    -52.47710629	   1822.39389408	    146.25021140	     -3.29107935	    -12.57844818
      3.91000000	     37.62152470	     13.84662706	     16.02191328	   -217.90198914	    838.45939341	      5.88208973	     14.30274726	     37.39341750	     37.27484706	     45.00000000	    -45.00000000	   1351.32549637	  -2988.00189007	    149.27978578	   -111.32228130	    745.50239612	    164.53288623	     12.30401280	      5.09216115	     10.99600770	    -45.00000000	    -37.74152454	     45.00000000	    -45.00000000	  -1698.63974800	   -641.99796434	     18.75795666	    -52.75856080	   1822.49920403	    147.38874140	     -3.26826203	    -12.46543338
      3.92000000	     37.63847901	     13.90633238	     16.18023340	   -216.39052926	    837.44129357	      5.89463385	     14.44710227	     37.47250774	     37.39907096	     45.00000000	    -45.00000000	   1351.23502616	  -2988.09633048	    149.12741052	   -111.59380891	    745.49358069	    165.02221733	     12.29111922	      5.10482604	     10.84497455	    -45.00000000	    -37.63034599	     45.00000000	    -45.00000000	  -1698.81613818	   -641.96404311	     18.77698260	    -52.99865156	   1822.60704250	    148.80337568	     -3.15135088	    -12.29325244
      3.93000000	     37.60341427	     13.99609298	     16.42206655	   -214.74783153	    836.41758120	      5.91894717	     14.49754555	     37.48484045	     37.49248022	     45.00000000	    -45.00000000	   1351.26547724	  -2988.14929195	    149.10098076	   -111.84662772	    745.48117506	    165.39479429	     12.27245644	      5.15787003	     10.76943352	    -45.00000000	    -37.60956792	     45.00000000	    -45.00000000	  -1698.95898074	   -641.96296496	     18.80186836	    -53.18251948	   1822.70619064	    150.30236099	     -3.04870180	    -12.12949282
      3.94000000	     37.56211329	     14.06315453	     16.66904384	   -213.03226765	    835.41973307	      5.95430982	     14.53167024	     37.48742144	     37.56794349	     45.00000000	    -45.00000000	   1351.33225768	  -2988.16791071	    149.10141755	   -112.15039802	    745.47630997	    165.65130413	     12.24903582	      5.20860032	     10.71923009	    -45.00000000	    -37.62457052	     45.00000000	    -45.00000000	  -1699.13353578	   -641.98601005	     18.79660107	    -53.28768157	   1822.84708402	    151.83199767	     -2.94281812	    -11.95709788
      3.95000000	     37.89795763	     13.41327423	     15.26019415	   -214.23446866	    835.18969456	      6.16627798	     14.76382869	     37.74850533	     37.90896054	     45.00000000	    -45.00000000	   1351.70882625	  -2988.18195464	    148.85778964	   -113.73257902	    745.48331781	    166.07250585	     12.17945447	      5.53195185	     11.20106987	    -45.00000000	    -38.42914496	     45.00000000	    -44.45521060	  -1700.57797321	   -642.24510393	     18.88031389	    -51.88098133	   1823.01567413	    153.54086436	     -2.51155575	    -11.67481239
      3.96000000	     37.77700246	     13.58931150	     15.71937504	   -212.31666371	    834.39339190	      6.20404345	     14.88482837	     37.56491563	     37.96546578	     45.00000000	    -45.00000000	   1351.75386620	  -2988.21176587	    148.87596814	   -114.12330906	    745.41797125	    166.18873110	     12.20242015	      5.22175871	     11.50137856	    -45.00000000	    -38.52617709	     45.00000000	    -44.77542445	  -1700.48602723	   -642.37839021	     19.14214721	    -51.92685384	   1822.98972971	    155.13838087	     -2.71840747	    -11.64515003
      3.97000000	     37.69567323	     13.60609961	     15.93109842	   -210.39112322	    833.74533405	      6.23485852	     14.88595931	     37.56868266	     38.03789040	     45.00000000	    -45.00000000	   1351.77221490	  -2988.18448342	    148.83528784	   -114.35652821	    745.43133014	    166.24163191	     12.12389718	      5.30455330	     11.43764140	    -45.00000000	    -38.60579800	     45.00000000	    -44.51992136	  -1700.65587251	   -642.35266978	     19.06895662	    -52.05418114	   1823.10226314	    156.65644185	     -2.62911923	    -11.48028449
      3.98000000	     37.54419712	     13.78271188	     16.37902930	   -208.45538125	    833.25682655	      6.25112836	     14.77256647	     37.50786321	     37.96541666	     45.00000000	    -45.00000000	   1351.93366972	  -2988.04462402	    148.90419688	   -114.73559362	    745.48149715	    166.34271712	     12.02650842	      5.31771783	     11.45629994	    -45.00000000	    -38.66729128	     45.00000000	    -44.52761952	  -1700.77039865	   -642.22059996	     18.91670947	    -52.32269077	   1823.25322752	    158.01696148	     -2.58959206	    -11.32646462
      3.99000000	     37.50819870	     13.66740045	     16.51069008	   -206.50148662	    832.92356390	      6.24794616	     14.78273442	     37.54626449	     38.12521937	     45.00000000	    -45.00000000	   1351.88703011	  -2988.05103348	    148.69847040	   -115.12137567	    745.42766425	    166.50055913	     11.94728763	      5.28986852	     11.53306970	    -45.00000000	    -38.75838681	     45.00000000	    -44.23108038	  -1700.76612847	   -642.32418663	     18.97720910	    -52.62046499	   1823.19936371	    159.55520584	     -2.47994892	    -11.18113998
